<?xml version="1.0" standalone="no"?>
<!DOCTYPE svg PUBLIC "-//W3C//DTD SVG 20010904//EN"
 "http://www.w3.org/TR/2001/REC-SVG-20010904/DTD/svg10.dtd">
<svg version="1.0" xmlns="http://www.w3.org/2000/svg"
 width="488.000000pt" height="511.000000pt" viewBox="0 0 488.000000 511.000000"
 preserveAspectRatio="xMidYMid meet">
<metadata>
Created by potrace 1.16, written by Peter Selinger 2001-2019
</metadata>
<g transform="translate(0.000000,511.000000) scale(0.100000,-0.100000)"
fill="#fff" stroke="none">
<path d="M2145 4864 c-559 -75 -1077 -359 -1440 -790 -91 -108 -89 -106 -165
-221 -157 -240 -286 -558 -328 -813 -6 -36 -17 -99 -24 -140 -8 -45 -13 -161
-13 -290 0 -177 4 -239 24 -355 88 -532 343 -995 746 -1351 326 -289 706 -464
1170 -540 154 -26 496 -26 650 0 464 76 844 251 1170 540 403 356 658 819 746
1351 20 116 24 178 24 355 0 129 -5 245 -13 290 -7 41 -18 104 -24 140 -50
302 -212 668 -413 935 -316 421 -795 733 -1305 850 -238 54 -571 71 -805 39z
m1169 -1624 c116 -31 172 -63 256 -149 60 -62 81 -91 103 -147 135 -339 -67
-692 -421 -736 -251 -32 -478 101 -571 334 -22 55 -25 79 -25 183 -1 105 2
128 23 180 71 174 198 287 376 335 92 25 164 25 259 0z m963 -12 c122 -30 217
-126 238 -240 7 -37 7 -37 -37 -48 -23 -6 -63 -17 -88 -24 -25 -8 -54 -17 -66
-20 -17 -5 -23 0 -33 33 -38 128 -251 136 -251 10 0 -52 31 -74 123 -89 91
-14 190 -46 244 -77 116 -67 167 -234 109 -358 -69 -148 -235 -223 -434 -196
-102 13 -178 49 -237 112 -48 52 -95 142 -95 184 0 21 7 25 58 35 63 13 126
28 147 36 9 4 17 -7 25 -33 15 -49 27 -65 74 -97 31 -20 51 -26 95 -26 78 0
98 8 121 45 26 42 25 58 -2 89 -19 21 -46 30 -148 52 -145 31 -225 67 -267
121 -54 69 -66 102 -66 183 0 77 16 124 67 193 29 39 119 97 175 112 59 17
189 18 248 3z m-3190 -15 c3 -10 23 -55 44 -101 22 -46 39 -85 39 -88 0 -3 11
-29 23 -57 13 -29 70 -158 127 -287 57 -129 106 -238 109 -242 4 -4 35 36 71
90 35 53 81 120 102 148 21 28 38 57 38 64 0 7 -12 28 -26 47 -14 18 -63 88
-108 156 -46 67 -106 156 -134 197 -29 41 -52 78 -52 82 0 4 67 8 149 8 l149
0 45 -77 c106 -186 122 -212 127 -213 3 0 45 65 93 145 l88 145 145 0 c84 0
144 -4 144 -10 0 -8 -87 -139 -272 -412 l-48 -69 19 -27 c29 -40 135 -206 140
-217 2 -5 25 -41 51 -80 26 -38 63 -96 83 -127 l37 -58 -138 0 -137 1 -65 100
c-36 55 -72 111 -80 123 -8 13 -24 38 -35 55 -10 17 -22 31 -25 31 -3 0 -50
-70 -105 -155 l-100 -155 -166 0 -166 0 -122 278 c-68 152 -138 308 -156 347
l-32 70 -27 -58 c-66 -144 -99 -219 -146 -327 -17 -41 -40 -93 -50 -115 -9
-22 -25 -58 -35 -80 -9 -22 -24 -55 -32 -72 l-15 -33 -124 0 c-111 0 -143 7
-115 24 5 3 12 17 15 31 4 14 17 49 30 78 13 28 33 72 44 97 11 25 30 68 42
95 30 67 45 102 130 295 40 91 87 198 106 238 19 40 34 75 34 77 0 2 4 15 10
29 l10 26 130 0 c115 0 131 -2 137 -17z m1483 -483 l0 -500 -120 0 -120 0 0
500 0 500 120 0 120 0 0 -500z"/>
<path d="M3075 2989 c-180 -95 -215 -331 -69 -472 43 -41 126 -77 179 -77 85
0 190 68 237 155 19 33 23 56 23 135 0 104 -9 129 -68 196 -69 80 -213 110
-302 63z"/>
</g>
</svg>
