<?xml version="1.0" standalone="no"?>
<!DOCTYPE svg PUBLIC "-//W3C//DTD SVG 20010904//EN"
 "http://www.w3.org/TR/2001/REC-SVG-20010904/DTD/svg10.dtd">
<svg version="1.0" xmlns="http://www.w3.org/2000/svg"
 width="600.000000pt" height="700.000000pt" viewBox="0 0 600.000000 700.000000"
 preserveAspectRatio="xMidYMid meet">
<metadata>
Created by potrace 1.16, written by Peter Selinger 2001-2019
</metadata>
<g transform="translate(0.000000,700.000000) scale(0.100000,-0.100000)"
fill="#FF0000" stroke="none">
<path d="M1831 5239 c-417 -49 -749 -307 -877 -683 -110 -321 -66 -694 117
-998 78 -130 153 -222 304 -374 176 -177 252 -239 720 -592 494 -373 697 -543
856 -716 l57 -61 153 150 c175 171 301 278 579 491 107 83 291 224 408 314
378 290 566 471 707 680 234 348 302 677 215 1032 -83 335 -322 588 -666 704
-240 80 -543 74 -771 -17 -256 -101 -472 -310 -599 -576 -19 -40 -36 -73 -39
-73 -2 0 -30 50 -61 111 -186 363 -462 560 -854 608 -95 12 -142 12 -249 0z"/>
</g>
</svg>
