<?xml version="1.0" standalone="no"?>
<!DOCTYPE svg PUBLIC "-//W3C//DTD SVG 20010904//EN"
 "http://www.w3.org/TR/2001/REC-SVG-20010904/DTD/svg10.dtd">
<svg version="1.0" xmlns="http://www.w3.org/2000/svg"
 width="500.000000pt" height="500.000000pt" viewBox="0 0 500.000000 500.000000"
 preserveAspectRatio="xMidYMid meet">
<metadata>
Created by potrace 1.16, written by Peter Selinger 2001-2019
</metadata>
<g transform="translate(0.000000,500.000000) scale(0.100000,-0.100000)"
fill="#db8b00" stroke="none">
<path d="M2230 4130 c0 -6 -40 -10 -99 -10 -96 0 -204 -16 -266 -40 -17 -6
-51 -15 -77 -20 -25 -5 -66 -18 -90 -29 -24 -11 -61 -27 -83 -35 -22 -8 -60
-22 -85 -31 -25 -9 -61 -27 -80 -39 -19 -13 -67 -44 -105 -69 -39 -25 -77 -52
-84 -61 -7 -9 -17 -16 -22 -16 -16 0 -277 -267 -304 -310 -5 -9 -30 -48 -55
-86 -84 -127 -157 -281 -198 -419 -53 -175 -65 -274 -61 -513 l4 -212 -60 0
c-74 0 -127 -31 -146 -85 -7 -19 -17 -35 -21 -35 -10 0 -11 -37 0 -42 4 -1 15
-20 24 -41 10 -20 32 -46 50 -57 31 -19 51 -20 328 -20 l296 0 30 -28 c68 -62
66 -161 -3 -217 -29 -23 -48 -29 -107 -33 -62 -4 -75 -8 -103 -35 -31 -29 -33
-35 -33 -97 0 -74 6 -84 72 -113 32 -15 87 -17 479 -17 388 0 447 -2 479 -16
91 -40 95 -202 7 -251 -29 -16 -67 -18 -357 -21 -248 -2 -328 -6 -340 -16 -8
-7 -23 -16 -32 -19 -23 -8 -42 -77 -34 -123 9 -46 55 -94 90 -94 14 0 26 -4
26 -10 0 -7 407 -10 1200 -10 793 0 1200 3 1200 10 0 6 13 10 29 10 45 0 91
58 91 115 0 61 -14 91 -52 112 -30 16 -76 18 -523 23 -489 5 -490 5 -522 28
-39 28 -57 79 -50 145 4 44 10 56 42 84 l38 33 113 0 c95 0 121 3 156 21 65
31 86 97 54 172 -20 48 -51 64 -136 69 -96 5 -145 33 -161 93 -18 65 -6 115
37 153 l37 32 734 0 c822 0 775 -4 812 73 24 50 26 71 9 118 -28 82 -53 89
-309 89 -198 0 -210 1 -205 18 14 41 26 233 21 312 -9 120 -42 302 -71 390
-14 41 -29 89 -33 105 -10 38 -137 284 -161 310 -10 11 -21 30 -25 43 -3 12
-11 22 -16 22 -6 0 -17 16 -24 35 -17 40 -242 271 -301 307 -21 14 -45 33 -53
42 -7 9 -19 16 -25 16 -7 0 -25 14 -41 30 -16 17 -34 30 -40 30 -6 0 -26 11
-45 25 -19 14 -41 25 -49 25 -9 0 -38 11 -66 24 -188 89 -410 146 -567 146
-52 0 -88 4 -88 10 0 6 -11 10 -25 10 -14 0 -25 -4 -25 -10z"/>
<path d="M3301 1646 c-28 -29 -33 -40 -33 -88 -1 -79 7 -93 62 -117 43 -18 68
-21 210 -21 138 0 167 3 204 19 82 38 97 133 31 205 l-33 36 -204 0 -204 0
-33 -34z"/>
<path d="M4091 1654 c-41 -34 -57 -92 -40 -149 11 -37 19 -46 61 -64 42 -18
67 -21 209 -21 137 0 166 3 203 19 40 19 66 53 66 86 0 7 6 16 13 18 8 4 9 8
1 14 -6 4 -14 21 -18 37 -4 16 -20 41 -36 57 l-28 29 -200 0 -200 0 -31 -26z"/>
</g>
</svg>
